<?xml version="1.0" encoding="UTF-8" standalone="no"?><!DOCTYPE svg PUBLIC "-//W3C//DTD SVG 1.1//EN" "http://www.w3.org/Graphics/SVG/1.1/DTD/svg11.dtd"><svg width="100%" height="100%" viewBox="0 0 1217 696" version="1.1" xmlns="http://www.w3.org/2000/svg" xmlns:xlink="http://www.w3.org/1999/xlink" xml:space="preserve" xmlns:serif="http://www.serif.com/" style="fill-rule:evenodd;clip-rule:evenodd;stroke-linejoin:round;stroke-miterlimit:2;"><path d="M291.316,309.588l45,0l1.974,14.839c3.459,-11.877 26.21,-20.295 40.065,-20.295c32.153,0 44.996,19.794 44.996,54.422l0,74.675l-49.95,0l0,-66.763c0,-13.368 -2.475,-23.253 -15.824,-23.253c-12.364,0 -18.786,13.349 -18.786,22.751l0,67.265l-47.475,0l0,-123.641Z" style="fill:#0066b1;"/><path d="M0,433.716l0,-175.086l83.575,0c49.955,0 72.702,24.242 72.702,59.357c0,37.586 -20.755,63.299 -72.702,63.299l-28.188,0l0,52.425l-55.387,0.005Zm77.655,-94.955c13.349,0.004 27.687,-2.977 27.687,-18.299c0,-15.828 -15.322,-19.287 -27.687,-19.287l-22.268,0l0,37.59l22.268,-0.004Z" style="fill:#0066b1;"/><path d="M841.269,309.588l45.503,0l1.485,14.839c3.952,-11.877 26.721,-20.295 40.553,-20.295c31.647,0 45.019,19.794 45.019,54.422l0,75.157l-49.955,0l0,-67.245c0,-13.368 -2.976,-23.253 -16.325,-23.253c-11.881,0 -18.303,13.349 -18.303,22.751l0,67.747l-47.977,0l0,-124.123Z" style="fill:#0066b1;"/><path d="M611.785,389.198c0,4.954 2.475,12.383 5.433,14.84c3.482,2.474 7.916,4.954 13.372,4.954c8.896,0 15.824,-2.48 15.824,-10.874c0.482,-20.778 -75.181,-2.48 -75.181,-51.929c0,-34.628 26.721,-42.539 54.403,-42.539c27.705,0 65.778,5.437 64.288,43.027l-42.02,0c0,-3.464 -1.49,-5.939 -3.464,-8.901c-2.981,-3.464 -6.44,-4.954 -12.866,-5.437c-8.413,-0.501 -16.329,0.989 -16.329,7.41c0.506,19.288 78.161,6.44 78.161,51.924c0,31.67 -22.268,46.008 -65.295,46.008c-27.2,-0.506 -61.326,-14.338 -61.326,-48.483l45,0Z" style="fill:#0066b1;"/><path d="M1123.68,357.546c0,-2.957 0,-6.922 -3.965,-11.858c-1.973,-2.475 -6.426,-7.912 -13.349,-7.912c-18.785,0 -23.74,18.303 -23.74,33.142c0,17.296 7.912,31.648 22.751,31.648c12.866,0 19.288,-11.877 19.288,-21.762l43.529,0c0.989,25.708 -16.832,56.371 -64.79,56.371c-39.081,0 -66.781,-27.199 -66.781,-66.763c0,-47.977 35.617,-66.28 66.28,-66.28c41.555,0 65.291,25.226 64.789,53.414l-44.012,0Z" style="fill:#0066b1;"/><path d="M238.385,433.716l-4.954,-10.373c-9.384,7.912 -19.288,12.365 -35.111,12.365c-15.322,-0.506 -45.502,-2.479 -45.502,-35.617c0,-54.403 81.114,-29.679 81.114,-56.395c0,-8.901 -9.885,-8.395 -15.322,-8.395c-9.904,0 -16.325,1.974 -17.816,16.808l-41.537,0c0,-25.708 7.912,-47.475 62.315,-47.475c52.913,0 58.368,27.705 58.368,54.904l0,56.376c0,7.429 0.483,10.893 5.437,16.33l0,0.985l-46.992,0.482l0,0.005Zm-3.947,-56.873c-16.831,7.912 -38.092,7.424 -38.579,19.789c0,7.912 4.434,11.858 14.338,11.858c16.329,0 25.225,-16.812 24.241,-31.652l0,0.005Zm282.898,56.878l-4.954,-10.368c-9.402,7.912 -19.789,12.364 -35.111,12.364c-15.828,-0.506 -46.008,-2.479 -46.008,-35.617c0,-54.403 81.119,-29.678 81.602,-56.395c0,-8.9 -10.368,-8.394 -15.322,-8.394c-10.387,0 -16.325,1.973 -17.797,16.808l-41.556,0c0,-25.709 7.429,-47.476 62.315,-47.476c52.429,0 57.862,27.705 57.862,54.905l0,56.376c0,7.429 0.506,10.892 5.455,16.329l0,0.985l-46.486,0.483Zm-3.965,-56.873c-16.813,7.911 -38.575,7.424 -38.575,19.788c-0.004,7.912 3.947,11.859 14.333,11.859c15.824,0 25.226,-16.813 24.242,-31.652l0,0.005Z" style="fill:#0066b1;"/><path d="M1028.71,433.716l0,-124.128l-45.99,0l0,124.123l45.99,0l0,0.005Zm-45.99,-139.947l45.99,0l0,-35.617l-45.99,0l0,35.617Z" style="fill:#0066b1;"/><path d="M767.096,305.14c41.05,0 66.262,28.671 66.262,66.261c0,38.092 -25.212,66.28 -66.262,66.28c-41.054,0 -66.762,-28.188 -66.762,-66.28c0,-37.59 25.708,-66.261 66.762,-66.261Zm-21.766,66.261c0,15.341 4.935,34.127 21.766,34.628c16.813,0 21.261,-19.287 21.261,-34.628c0,-14.839 -4.448,-34.126 -21.261,-34.126c-16.831,0 -21.284,19.287 -21.766,34.126Z" style="fill:#0066b1;"/><path d="M1197.38,409.493c2.957,0 7.405,0.483 7.405,-3.464c0,-3.463 -2.957,-3.965 -5.437,-3.965l-5.938,0l0,7.429l3.97,0Zm9.889,11.859l-2.962,0l-5.938,-9.886l-4.954,0l0,9.886l-2.475,0l0,-21.261l8.919,0c3.965,0 7.503,1.198 7.503,5.938c0,3.947 -2.572,5.437 -6.519,5.437l6.426,9.886Zm7.174,-10.136c0,-9.403 -7.429,-16.813 -16.325,-16.813c-9.384,0 -16.813,7.41 -16.813,16.813c0,8.896 7.429,16.325 16.813,16.325c8.896,0 16.325,-7.429 16.325,-16.325Zm-35.362,-0.256c0,-10.386 8.414,-18.781 18.805,-18.781c10.368,0 18.786,8.395 18.786,18.781c0,10.392 -8.418,18.805 -18.786,18.805c-10.391,0.004 -18.805,-8.413 -18.805,-18.805Z" style="fill:#0066b1;"/></svg>